{"glyphs":{"�":{"ha":1389,"x_min":0,"x_max":0,"o":""},"\u0000":{"ha":0,"x_min":0,"x_max":0,"o":"m 0 0 l 0 0 l 0 0 l 0 0 z "},"\u0001":{"ha":0,"x_min":0,"x_max":0,"o":"m 0 0 l 0 0 l 0 0 l 0 0 z "}," ":{"ha":0,"x_min":0,"x_max":0,"o":"m 0 0 l 0 0 l 0 0 l 0 0 z "},"":{"ha":1389,"x_min":145,"x_max":1244,"o":"m 1244 -115 q 1164 42 1240 -107 q 1000 368 1089 191 q 837 688 910 544 q 764 833 764 833 q 742 868 764 833 q 694 903 720 903 q 647 868 669 903 q 625 833 625 833 q 552 686 625 833 q 389 361 479 540 q 224 33 300 183 q 145 -127 149 -118 q 143 -177 136 -145 q 202 -209 151 -209 q 386 -209 229 -209 q 720 -209 543 -209 q 1042 -209 898 -209 q 1187 -209 1187 -209 q 1246 -171 1238 -209 q 1244 -115 1253 -133 l 1244 -115 m 694 -106 q 636 -81 661 -106 q 612 -23 612 -57 q 636 35 612 11 q 694 60 661 60 q 753 35 728 60 q 777 -23 777 11 q 753 -81 777 -57 q 694 -106 728 -106 l 694 -106 m 774 486 q 771 395 774 448 q 764 292 768 342 q 755 205 760 243 q 749 156 750 167 q 746 146 749 155 q 736 138 743 138 l 652 138 q 644 146 647 138 q 640 156 642 153 q 635 204 639 165 q 626 292 631 243 q 618 395 621 342 q 614 486 614 448 l 614 582 q 621 588 614 585 q 633 594 627 591 q 661 600 647 600 q 692 601 674 601 q 729 600 716 601 q 754 594 742 598 q 768 588 761 591 q 774 582 774 585 l 774 486 l 774 486 z "},"":{"ha":1389,"x_min":368,"x_max":1021,"o":"m 1021 536 q 999 551 1012 545 q 972 556 986 556 q 946 551 959 556 q 924 536 933 545 l 694 307 l 465 536 q 443 551 456 545 q 416 556 430 556 q 390 551 403 556 q 368 536 377 545 q 347 486 347 515 q 368 437 347 457 l 646 159 q 668 144 655 149 q 694 138 681 138 q 721 144 708 138 q 743 159 734 149 l 1021 437 q 1042 486 1042 457 q 1021 536 1042 515 l 1021 536 z "},"":{"ha":1389,"x_min":486,"x_max":903,"o":"m 654 347 l 883 576 q 898 599 892 586 q 903 625 903 612 q 898 652 903 639 q 883 674 892 665 q 833 694 863 694 q 784 674 804 694 l 506 396 q 491 374 496 387 q 486 347 486 361 q 491 321 486 334 q 506 298 496 308 l 784 20 q 833 0 804 0 q 883 20 863 0 q 898 43 892 30 q 903 69 903 56 q 898 96 903 83 q 883 118 892 109 l 654 347 l 654 347 z "},"":{"ha":1389,"x_min":486,"x_max":903,"o":"m 883 396 l 605 674 q 555 694 585 694 q 506 674 526 694 q 491 652 496 665 q 486 625 486 639 q 491 599 486 612 q 506 576 496 586 l 735 347 l 506 118 q 491 96 496 109 q 486 69 486 83 q 491 43 486 56 q 506 20 496 30 q 555 0 526 0 q 605 20 585 0 l 883 298 q 898 321 892 308 q 903 347 903 334 q 898 374 903 361 q 883 396 892 387 l 883 396 z "},"":{"ha":1389,"x_min":0,"x_max":1389,"o":"m 807 907 q 951 858 883 892 q 1074 774 1019 823 q 1172 661 1130 724 q 1237 525 1214 598 q 1110 590 1176 562 q 974 637 1044 618 q 903 786 945 718 q 807 907 861 854 l 807 907 l 807 907 l 807 907 m 1264 313 l 1023 313 l 1023 347 q 1017 456 1023 403 q 998 560 1010 510 q 1112 515 1057 541 q 1219 457 1168 490 q 1242 389 1219 457 q 1264 313 1265 321 l 1264 313 l 1264 313 l 1264 313 m 1256 248 q 1236 196 1252 229 q 1219 163 1219 163 q 1101 100 1162 127 q 974 53 1039 72 q 1000 148 989 96 q 1016 248 1010 199 l 1255 248 l 1256 248 m 1194 71 q 1123 -30 1164 16 q 1033 -113 1082 -76 q 926 -175 983 -149 q 807 -213 869 -201 q 880 -127 846 -174 q 940 -27 914 -80 q 1071 14 1006 -11 q 1194 71 1135 38 l 1194 71 l 1194 71 l 1194 71 m 582 -213 q 463 -175 519 -201 q 356 -113 406 -149 q 266 -31 307 -77 q 195 71 225 16 q 317 14 254 38 q 449 -27 381 -11 q 509 -127 475 -80 q 582 -213 543 -174 l 582 -213 l 582 -213 l 582 -213 m 133 248 l 373 248 q 389 148 378 199 q 415 53 400 96 q 288 100 350 72 q 170 163 227 127 q 153 196 170 163 q 133 248 137 229 l 133 248 l 133 248 l 133 248 m 125 313 q 146 389 123 321 q 170 457 170 457 q 277 515 221 490 q 391 560 332 541 q 372 456 378 510 q 366 347 366 403 l 366 313 l 125 313 l 125 313 m 152 526 q 217 661 175 598 q 315 774 259 724 q 438 858 370 823 q 582 907 506 892 q 486 786 528 854 q 415 637 444 718 q 279 590 345 618 q 152 526 213 562 l 152 526 l 152 526 l 152 526 m 694 -347 q 761 -343 718 -347 q 804 -339 804 -339 q 1035 -258 928 -319 q 1221 -106 1142 -197 q 1344 101 1299 -15 q 1389 347 1389 217 q 1344 593 1389 477 q 1221 800 1299 709 q 1035 952 1142 891 q 804 1034 928 1013 l 784 1036 q 740 1040 762 1039 q 694 1042 718 1042 q 649 1040 671 1042 q 604 1036 627 1039 l 585 1034 q 354 952 461 1013 q 168 800 247 891 q 45 593 90 709 q 0 347 0 477 q 45 101 0 217 q 168 -106 90 -15 q 354 -258 247 -197 q 585 -339 461 -319 q 628 -343 585 -339 q 694 -347 671 -347 l 694 -347 l 694 -347 l 694 -347 m 662 888 l 662 675 q 575 669 618 674 q 491 655 532 663 q 565 785 521 726 q 662 888 609 845 l 662 888 l 662 888 l 662 888 m 662 608 l 662 315 l 430 313 l 429 343 q 437 465 429 406 q 464 581 446 525 q 561 599 510 591 q 662 608 612 606 l 662 608 l 662 608 l 662 608 m 662 250 l 662 15 q 575 21 618 16 q 491 34 532 26 q 460 138 471 81 q 442 250 449 195 l 662 250 l 662 250 m 662 -53 l 662 -193 q 590 -125 624 -163 q 529 -42 556 -87 q 595 -49 562 -46 q 662 -53 628 -52 l 662 -53 l 662 -53 l 662 -53 m 726 -194 l 726 -54 q 793 -50 758 -53 q 860 -42 827 -46 q 798 -125 833 -87 q 726 -194 762 -164 l 726 -194 l 726 -194 l 726 -194 m 726 14 l 726 248 l 954 248 q 932 138 947 194 q 898 34 918 81 q 812 20 857 26 q 726 14 768 15 l 726 14 l 726 14 l 726 14 m 726 313 l 726 606 q 827 598 776 605 q 925 581 879 591 q 951 465 943 525 q 960 343 960 406 l 959 313 l 726 313 l 726 313 m 726 674 l 726 887 q 823 785 779 844 q 898 655 868 726 q 812 668 857 663 q 726 674 768 673 l 726 674 l 726 674 l 726 674 z "},"":{"ha":1389,"x_min":69,"x_max":1257,"o":"m 69 378 q 116 147 69 255 q 243 -41 163 39 q 433 -169 324 -122 q 663 -216 541 -216 q 895 -169 787 -216 q 1083 -41 1002 -122 q 1211 147 1164 39 q 1257 378 1257 255 q 1211 609 1257 500 q 1083 798 1164 718 q 895 926 1002 879 q 663 972 787 972 q 433 926 541 972 q 243 798 324 879 q 116 609 163 718 q 69 378 69 500 l 69 378 l 69 378 m 298 361 q 356 381 323 382 q 410 357 389 380 l 532 214 l 905 663 q 958 690 925 688 q 1016 671 990 692 q 1044 618 1039 651 q 1028 562 1048 586 l 582 23 q 533 -1 562 -1 q 484 22 505 -1 l 288 251 q 271 307 267 274 q 298 361 274 340 l 298 361 l 298 361 z "},"":{"ha":1389,"x_min":347,"x_max":1042,"o":"m 792 347 l 1021 576 q 1036 599 1031 586 q 1042 625 1042 612 q 1036 652 1042 639 q 1021 674 1031 665 q 972 694 1001 694 q 924 674 944 694 l 694 445 l 465 674 q 416 694 445 694 q 368 674 388 694 q 353 652 358 665 q 347 625 347 639 q 353 599 347 612 q 368 576 358 586 l 597 347 l 368 118 q 353 96 358 109 q 347 69 347 83 q 353 43 347 56 q 368 20 358 30 q 416 0 388 0 q 465 20 445 0 l 694 250 l 924 20 q 972 0 944 0 q 1021 20 1001 0 q 1036 43 1031 30 q 1042 69 1042 56 q 1036 96 1042 83 q 1021 118 1031 109 l 792 347 l 792 347 z "},"":{"ha":1389,"x_min":138,"x_max":1251,"o":"m 1180 764 l 209 764 q 174 772 209 764 q 138 833 138 781 q 174 895 138 886 q 209 903 209 903 l 1180 903 q 1215 894 1180 903 q 1251 833 1251 884 q 1215 773 1251 783 q 1180 764 1180 764 l 1180 764 m 1180 347 l 209 347 q 174 356 209 347 q 138 416 138 365 q 174 477 138 468 q 209 486 209 486 l 1180 486 q 1215 477 1180 486 q 1251 416 1251 469 q 1215 356 1251 365 q 1180 347 1180 347 l 1180 347 m 1180 -69 l 209 -69 q 174 -60 209 -69 q 138 0 138 -52 q 174 60 138 52 q 209 69 209 69 l 1180 69 q 1215 60 1180 69 q 1251 0 1251 52 q 1215 -60 1251 -52 q 1180 -69 1180 -69 l 1180 -69 z "},"":{"ha":1389,"x_min":100,"x_max":1251,"o":"m 764 903 q 574 865 663 903 q 420 760 486 826 q 316 606 354 694 q 278 416 278 517 q 298 278 278 345 q 355 155 319 212 l 100 -100 q 69 -174 69 -130 q 100 -247 69 -217 q 174 -278 130 -278 q 247 -247 217 -278 l 502 8 q 625 -49 559 -28 q 764 -69 692 -69 q 953 -31 864 -69 q 1107 73 1042 7 q 1212 227 1173 138 q 1251 416 1251 316 q 1212 606 1251 517 q 1107 760 1173 694 q 953 865 1042 826 q 764 903 864 903 l 764 903 m 764 56 q 623 84 689 56 q 509 161 557 113 q 431 276 460 210 q 403 416 403 342 q 431 557 403 491 q 509 672 460 623 q 623 749 557 722 q 764 777 689 777 q 904 749 838 777 q 1019 672 970 722 q 1097 557 1069 623 q 1124 416 1124 491 q 1097 276 1124 342 q 1019 161 1069 210 q 904 84 970 113 q 764 56 838 56 l 764 56 z "},"":{"ha":1389,"x_min":92,"x_max":1297,"o":"m 926 926 q 899 991 926 964 q 833 1019 872 1019 l 556 1019 q 490 991 517 1019 q 463 926 463 964 l 463 741 l 926 741 l 926 926 l 926 926 m 647 880 q 661 913 647 899 q 694 926 675 926 q 728 913 713 926 q 742 880 742 899 q 728 846 742 860 q 694 833 713 833 q 661 846 675 833 q 647 880 647 860 l 647 880 l 647 880 m 1297 741 q 1270 806 1297 779 q 1203 833 1242 833 l 1019 833 l 1019 648 l 370 648 l 370 833 l 186 833 q 119 806 146 833 q 92 741 92 779 l 92 -278 q 119 -343 92 -316 q 186 -370 146 -370 l 1203 -370 q 1270 -343 1242 -370 q 1297 -278 1297 -316 l 1297 741 l 1297 741 m 526 -33 q 510 4 510 -18 q 526 42 510 26 l 802 316 q 838 332 817 332 q 875 316 860 332 q 890 280 890 301 q 875 244 890 259 l 600 -33 q 562 -47 583 -47 q 526 -33 541 -47 l 526 -33 l 526 -33 m 401 24 q 357 -64 361 -16 q 399 -156 353 -111 q 497 -198 444 -202 q 587 -153 551 -194 q 627 -96 610 -127 q 651 -27 644 -65 l 739 37 q 724 -106 749 -31 q 651 -228 699 -180 q 489 -294 583 -294 q 328 -228 395 -294 q 262 -66 262 -160 q 328 95 262 28 q 450 168 374 142 q 593 183 525 193 l 528 95 q 458 66 492 85 q 401 24 425 47 l 401 24 l 401 24 m 650 240 q 666 384 640 309 q 738 506 692 458 q 899 572 804 572 q 1061 506 994 572 q 1127 345 1127 439 q 1061 182 1127 250 q 939 110 1015 136 q 796 95 864 84 l 873 187 q 938 214 910 194 q 990 258 966 233 q 1029 351 1038 305 q 987 430 1021 396 q 892 475 943 475 q 804 438 842 476 l 793 427 q 762 375 773 403 q 742 316 750 347 l 650 240 l 650 240 z "},"":{"ha":1389,"x_min":217,"x_max":1172,"o":"m 998 521 l 998 -87 l 391 -87 l 391 521 l 304 521 l 304 -87 q 329 -149 304 -123 q 391 -174 354 -174 l 998 -174 q 1060 -149 1035 -174 q 1085 -87 1085 -123 l 1085 521 l 998 521 l 998 521 m 521 0 l 521 0 q 490 13 503 0 q 477 43 477 26 l 477 434 q 490 465 477 452 q 521 477 503 477 l 521 477 q 551 465 538 477 q 564 434 564 452 l 564 43 q 551 13 564 26 q 521 0 538 0 l 521 0 m 694 0 l 694 0 q 664 13 677 0 q 651 43 651 26 l 651 434 q 664 465 651 452 q 694 477 677 477 l 694 477 q 725 465 712 477 q 738 434 738 452 l 738 43 q 725 13 738 26 q 694 0 712 0 l 694 0 m 868 0 l 868 0 q 838 13 850 0 q 825 43 825 26 l 825 434 q 838 465 825 452 q 868 477 850 477 l 868 477 q 899 465 886 477 q 911 434 911 452 l 911 43 q 899 13 911 26 q 868 0 886 0 l 868 0 m 1128 694 l 911 694 q 861 817 911 766 q 738 868 810 868 l 651 868 q 528 817 579 868 q 477 694 477 766 l 260 694 q 230 682 243 694 q 217 651 217 669 q 230 621 217 633 q 260 608 243 608 l 1128 608 q 1159 621 1146 608 q 1172 651 1172 633 q 1159 682 1172 669 q 1128 694 1146 694 l 1128 694 m 564 694 l 564 738 q 577 768 564 755 q 608 781 590 781 l 781 781 q 812 768 799 781 q 825 738 825 755 l 825 694 l 564 694 l 564 694 z "},"":{"ha":1389,"x_min":347,"x_max":1085,"o":"m 974 393 l 781 201 l 781 868 l 651 868 l 651 201 l 458 393 l 366 301 l 716 -49 l 1066 301 l 974 393 m 347 -43 l 1085 -43 l 1085 -174 l 347 -174 l 347 -43 l 347 -43 z "},"":{"ha":1389,"x_min":174,"x_max":1215,"o":"m 1172 87 q 1202 100 1190 87 q 1215 130 1215 113 l 1215 738 q 1202 768 1215 755 q 1172 781 1190 781 l 391 781 q 360 768 373 781 q 347 738 347 755 l 347 130 q 360 100 347 113 q 391 87 373 87 l 1172 87 l 1172 87 m 434 694 l 1128 694 l 1128 174 l 434 174 l 434 694 l 434 694 m 998 -87 q 1029 -74 1016 -87 q 1042 -43 1042 -61 l 1042 0 l 260 0 l 260 608 l 217 608 q 186 595 199 608 q 174 564 174 582 l 174 -43 q 186 -74 174 -61 q 217 -87 199 -87 l 998 -87 l 998 -87 z "},"":{"ha":1389,"x_min":174,"x_max":1172,"o":"m 760 825 q 599 792 674 825 q 468 704 524 760 q 380 573 412 648 q 347 412 347 498 q 367 286 347 346 q 422 176 387 227 l 194 -52 q 179 -75 184 -62 q 174 -102 174 -88 q 179 -129 174 -115 q 194 -153 184 -142 q 217 -168 205 -163 q 241 -174 229 -172 q 271 -169 256 -174 q 296 -153 285 -164 l 524 75 q 633 20 574 39 q 760 0 693 0 q 920 33 845 0 q 1051 121 996 65 q 1139 252 1107 176 q 1172 412 1172 327 q 1139 573 1172 498 q 1051 704 1107 648 q 920 792 996 760 q 760 825 845 825 l 760 825 m 760 130 q 650 153 701 130 q 560 213 598 175 q 500 302 522 251 q 477 412 477 354 q 500 522 477 471 q 560 612 522 574 q 650 672 598 650 q 760 694 701 694 q 869 672 818 694 q 959 612 921 650 q 1019 522 997 574 q 1042 412 1042 471 q 1019 302 1042 354 q 959 213 997 251 q 869 153 921 175 q 760 130 818 130 l 760 130 z "},"":{"ha":1389,"x_min":174,"x_max":1215,"o":"m 1172 434 l 1108 434 q 1082 443 1093 434 q 1066 467 1070 452 q 1055 497 1061 481 q 1042 526 1048 513 q 1036 554 1035 540 q 1048 578 1038 568 l 1093 624 q 1107 654 1107 636 q 1093 685 1107 673 l 1032 746 q 1002 760 1020 760 q 971 746 983 760 l 925 701 q 901 689 916 690 q 873 694 887 688 q 844 707 860 701 q 814 719 829 713 q 790 734 799 723 q 781 761 781 746 l 781 825 q 768 855 781 842 q 738 868 755 868 l 651 868 q 621 855 633 868 q 608 825 608 842 l 608 761 q 599 734 608 746 q 575 719 590 723 q 545 707 560 713 q 515 694 529 701 q 488 689 502 688 q 464 701 473 690 l 418 746 q 387 760 406 760 q 357 746 369 760 l 296 685 q 282 654 282 673 q 296 624 282 636 l 340 578 q 353 554 351 568 q 347 526 354 540 q 334 497 340 513 q 323 467 328 481 q 307 443 319 452 q 281 434 296 434 l 217 434 q 186 421 199 434 q 174 391 174 408 l 174 304 q 186 273 174 286 q 217 260 199 260 l 281 260 q 307 252 296 260 q 323 228 319 243 q 334 197 328 213 q 347 168 340 182 q 353 140 354 155 q 340 117 351 126 l 296 71 q 282 40 282 58 q 296 9 282 22 l 357 -52 q 387 -65 369 -65 q 418 -52 406 -65 l 464 -7 q 488 5 473 4 q 515 0 502 7 q 545 -13 529 -7 q 575 -24 560 -19 q 599 -40 590 -28 q 608 -66 608 -52 l 608 -130 q 621 -161 608 -148 q 651 -174 633 -174 l 738 -174 q 768 -161 755 -174 q 781 -130 781 -148 l 781 -66 q 790 -40 781 -52 q 814 -24 799 -28 q 844 -13 829 -19 q 873 0 860 -7 q 901 5 887 7 q 925 -7 916 4 l 971 -52 q 1002 -65 983 -65 q 1032 -52 1020 -65 l 1093 9 q 1107 40 1107 22 q 1093 71 1107 58 l 1048 117 q 1036 140 1038 126 q 1042 168 1035 155 q 1055 197 1048 182 q 1066 228 1061 213 q 1082 252 1070 243 q 1108 260 1093 260 l 1172 260 q 1202 273 1190 260 q 1215 304 1215 286 l 1215 391 q 1202 421 1215 408 q 1172 434 1190 434 l 1172 434 m 694 152 q 556 209 613 152 q 499 347 499 266 q 556 486 499 429 q 694 543 613 543 q 833 486 776 543 q 890 347 890 429 q 833 209 890 266 q 694 152 776 152 l 694 152 z "},"":{"ha":1389,"x_min":168,"x_max":1149,"o":"m 499 167 q 497 172 498 168 q 496 176 496 176 l 496 175 l 521 239 l 867 239 q 935 256 903 239 q 985 308 967 274 l 1149 658 l 1048 705 l 886 358 q 877 350 882 353 q 867 347 872 347 l 538 347 l 315 793 l 168 793 l 168 682 l 245 682 l 439 294 l 400 233 q 387 159 381 201 q 418 90 392 117 q 457 63 431 76 q 524 50 483 50 q 526 50 525 50 q 528 50 526 50 l 987 50 l 987 161 l 525 161 q 512 162 521 161 q 499 167 503 163 l 499 167 m 570 -87 q 543 -153 570 -125 q 477 -180 515 -180 q 412 -153 439 -180 q 384 -87 384 -125 q 412 -21 384 -49 q 477 7 439 7 q 543 -21 515 7 q 570 -87 570 -49 l 570 -87 m 1005 -87 q 977 -153 1005 -125 q 911 -180 949 -180 q 846 -153 873 -180 q 818 -87 818 -125 q 846 -21 818 -49 q 911 7 873 7 q 977 -21 949 7 q 1005 -87 1005 -49 l 1005 -87 m 890 738 l 760 738 l 760 868 l 651 868 l 651 738 l 521 738 l 521 629 l 651 629 l 651 499 l 760 499 l 760 629 l 890 629 l 890 738 z "},"":{"ha":1389,"x_min":357,"x_max":1097,"o":"m 368 369 q 425 389 392 389 q 479 363 458 388 l 601 222 l 974 671 q 1027 697 994 696 q 1085 680 1061 699 q 1113 626 1108 659 q 1097 568 1118 593 l 651 31 q 602 6 631 7 q 553 30 574 5 l 357 258 q 340 315 336 282 q 368 369 345 349 l 368 369 l 368 369 z "},"":{"ha":1389,"x_min":66,"x_max":1322,"o":"m 425 33 q 422 33 423 33 q 422 35 422 34 l 422 35 q 422 39 422 37 q 422 43 422 41 q 422 47 422 45 q 422 50 422 49 l 419 50 q 420 66 419 58 q 422 79 420 73 q 425 92 425 84 q 425 106 425 99 l 425 114 q 425 122 425 118 q 425 129 425 126 q 425 136 425 133 q 422 142 425 138 q 420 144 422 144 q 419 146 419 145 q 417 148 418 146 q 415 149 416 149 q 412 151 412 149 q 410 152 411 152 q 408 153 408 152 q 407 155 407 155 q 406 158 407 156 q 401 163 404 160 q 398 169 400 167 q 395 175 396 171 q 391 182 392 179 q 387 187 389 186 q 385 193 385 191 q 384 195 384 195 q 385 200 384 197 q 387 206 385 203 q 388 212 387 209 q 392 218 389 214 q 394 224 393 222 q 395 228 395 227 q 395 234 395 231 q 395 239 396 237 q 393 241 395 240 q 389 244 391 241 q 385 248 388 245 q 378 251 382 250 q 373 256 376 254 q 366 259 370 258 q 359 262 362 260 q 351 264 355 264 q 345 267 347 266 q 338 269 342 267 q 334 272 336 271 q 331 274 331 273 q 330 275 331 274 q 326 277 328 277 q 322 278 324 277 q 317 282 320 279 q 315 284 316 283 q 313 288 313 285 q 310 288 311 288 q 308 289 309 289 q 306 291 307 289 q 302 294 305 293 q 301 298 302 297 q 300 300 300 298 q 298 302 300 301 q 297 305 297 302 q 296 307 297 307 q 293 309 294 308 q 292 309 293 309 q 290 309 292 309 q 288 309 288 309 q 288 309 288 309 q 281 311 283 309 q 277 315 279 313 q 273 319 275 317 q 270 326 271 321 q 266 330 267 327 q 262 335 264 334 q 258 340 260 338 q 255 346 256 343 q 250 349 252 347 q 247 353 248 351 q 243 357 245 355 q 241 361 241 359 q 239 365 240 362 q 239 370 239 368 q 239 377 239 374 q 239 384 239 380 q 239 387 239 385 q 239 389 239 389 q 239 391 239 389 q 239 393 239 392 q 240 398 239 396 q 241 401 241 400 q 241 405 241 403 q 241 410 241 407 q 241 413 241 411 q 239 416 241 415 q 237 420 239 419 q 235 422 236 420 q 231 423 232 422 q 229 425 229 425 q 225 425 227 425 q 224 427 224 425 q 222 427 224 427 q 221 430 221 427 l 216 434 q 215 433 216 433 q 214 434 214 434 l 201 448 q 193 450 197 449 q 186 453 190 450 q 179 455 182 454 q 174 457 176 456 q 167 460 170 460 q 163 460 164 460 q 149 458 155 460 q 137 454 144 457 q 126 450 132 453 q 114 442 121 446 q 103 435 109 438 q 92 430 98 431 q 79 426 85 427 q 66 425 73 425 l 69 425 l 66 427 q 66 429 66 427 q 66 434 66 431 l 92 434 q 94 439 92 437 q 96 442 95 441 q 101 444 99 444 q 104 448 103 445 q 109 449 106 448 q 114 453 111 450 q 118 456 117 454 q 119 460 119 458 q 112 461 115 460 q 107 465 109 463 q 103 470 104 467 q 102 477 102 473 q 102 483 102 480 q 104 488 103 486 q 106 492 104 490 q 113 498 109 494 l 110 500 q 110 500 110 500 q 110 498 110 500 q 109 498 110 498 q 107 498 109 498 l 107 498 q 103 498 104 498 q 102 500 102 499 q 100 505 102 503 q 99 506 99 506 q 99 508 99 507 q 99 511 99 509 q 101 513 99 513 q 104 514 103 514 q 101 516 103 515 q 99 518 99 517 q 97 522 98 521 q 96 524 96 522 q 98 527 96 525 q 102 532 100 529 q 106 534 103 533 q 113 536 110 536 q 117 538 114 536 q 125 541 121 540 q 131 543 129 541 q 134 544 133 544 q 141 544 138 544 q 145 541 144 544 q 150 539 146 540 q 155 538 153 538 q 156 539 155 538 q 157 541 157 540 q 160 543 160 541 q 160 544 160 544 q 161 544 160 544 q 163 544 161 544 q 165 544 164 544 q 168 544 165 544 l 171 544 q 173 544 172 544 q 174 544 174 544 q 174 541 174 543 q 178 538 175 538 q 183 536 180 537 q 189 536 186 536 q 195 536 193 536 q 198 536 197 536 q 203 536 201 536 q 206 536 205 536 q 212 536 208 536 q 221 538 217 537 q 227 542 224 541 q 229 544 229 543 q 233 548 231 545 q 235 555 235 551 q 237 559 236 556 q 239 567 237 563 l 241 567 q 245 567 244 567 q 247 567 245 567 q 249 567 248 567 q 252 567 250 567 q 254 567 254 567 q 255 567 255 567 l 256 567 q 263 565 260 566 q 270 562 266 564 q 276 560 274 562 q 282 559 278 559 q 289 557 286 559 q 296 556 292 556 q 300 555 297 556 q 308 552 304 553 l 311 549 q 314 545 312 547 q 316 544 316 544 q 317 543 317 544 q 317 541 317 541 q 318 540 317 541 q 320 538 319 538 q 320 535 320 537 q 320 529 320 533 q 327 529 324 529 q 334 532 330 529 q 338 535 338 533 q 338 541 338 537 l 323 541 q 323 544 323 544 q 320 547 323 544 q 318 549 319 548 q 317 549 317 549 q 317 549 317 549 q 316 552 316 549 q 316 554 316 553 q 316 555 316 555 q 316 557 316 556 q 317 559 316 557 q 321 562 320 562 q 323 562 321 562 q 326 563 326 562 q 328 564 327 564 q 330 564 330 564 q 334 567 331 564 q 333 568 334 567 q 331 572 332 570 l 313 572 q 313 576 313 574 q 313 579 313 578 q 315 584 313 582 q 317 587 316 586 q 315 587 316 587 q 313 590 315 587 q 310 591 311 590 q 308 593 309 593 q 306 594 307 593 q 302 597 305 595 q 300 600 301 600 q 300 602 300 601 q 300 605 300 605 q 302 605 301 605 q 306 605 305 605 q 308 605 307 605 q 314 605 312 605 q 317 602 316 605 q 321 599 320 601 q 323 595 323 597 q 326 591 326 593 q 328 585 327 589 q 330 580 328 583 q 334 575 331 576 l 336 576 q 338 581 338 579 q 336 585 338 583 q 334 588 336 586 q 331 593 332 590 q 327 596 328 594 q 326 600 326 598 q 324 604 326 602 q 323 608 323 606 q 323 610 323 609 q 326 610 324 610 q 328 610 328 610 q 331 610 328 610 l 334 610 q 335 610 334 610 q 336 608 336 609 l 336 605 q 336 604 336 605 q 334 602 335 602 l 338 600 q 340 610 338 606 q 343 616 342 613 q 349 619 346 617 q 354 623 351 621 q 360 625 355 625 q 369 625 365 625 q 376 627 373 625 q 384 631 380 628 l 435 631 l 438 628 l 481 623 q 481 623 481 623 q 481 620 481 623 q 482 619 481 618 q 483 620 483 620 q 486 620 486 620 q 488 620 487 620 l 491 623 q 491 624 491 623 q 494 625 491 625 q 496 625 495 625 q 499 625 496 625 q 501 625 500 625 q 503 625 502 625 q 506 625 506 625 q 506 623 506 625 q 507 622 506 621 q 509 620 509 623 l 511 620 q 510 623 511 623 q 509 625 509 624 q 509 627 509 625 q 509 631 509 628 l 509 633 q 509 633 509 633 q 511 631 510 632 q 513 631 513 631 q 514 631 514 631 q 514 631 514 631 q 517 631 514 631 q 517 631 518 631 q 519 631 517 631 l 519 636 q 523 636 521 636 q 529 636 525 636 q 537 636 533 636 q 544 636 541 636 q 552 636 548 636 q 560 636 556 636 q 566 636 563 636 q 570 636 568 636 q 572 636 570 636 q 578 636 574 636 q 584 635 582 636 q 590 633 586 635 q 596 632 594 633 q 601 631 598 631 q 604 627 602 628 q 605 625 605 627 q 605 625 605 625 q 605 623 605 625 l 601 617 q 601 617 601 617 q 601 616 601 617 l 625 616 q 626 616 625 616 q 628 616 627 616 q 629 614 631 616 q 628 613 628 613 l 628 613 q 628 609 628 610 q 625 608 628 608 q 622 606 624 608 q 618 605 620 605 q 614 604 616 605 q 610 600 613 602 q 608 596 609 598 q 608 593 608 594 q 608 590 608 590 q 610 590 609 590 l 613 587 q 611 584 612 586 q 608 579 610 582 q 606 576 608 578 q 605 572 605 574 q 604 568 605 570 q 601 564 602 566 q 596 561 598 563 q 593 559 594 559 l 595 556 q 597 554 597 555 q 598 552 598 553 q 598 548 598 549 q 598 547 598 547 l 590 547 q 590 544 590 544 q 590 541 590 544 q 591 541 590 541 q 593 538 591 541 q 595 538 594 537 q 595 538 595 538 l 598 536 q 596 534 598 536 q 590 532 594 533 q 583 527 586 529 q 575 524 579 525 q 567 520 571 522 q 560 515 563 518 q 554 513 556 514 q 549 511 552 511 l 519 460 q 519 460 519 460 q 517 460 518 460 q 513 460 514 460 q 511 460 513 460 q 507 460 510 460 q 502 463 503 461 q 496 466 499 464 q 491 471 492 468 q 488 474 490 472 q 483 480 486 476 q 481 486 481 483 q 480 491 480 488 q 481 494 480 492 q 483 498 481 496 q 486 503 486 500 q 486 509 486 505 q 486 513 486 510 q 483 521 486 517 q 481 528 483 525 q 479 534 480 530 q 475 540 476 537 q 473 547 473 543 q 471 551 473 551 q 468 555 468 552 q 465 555 468 556 q 458 555 461 555 q 450 555 454 555 q 442 556 446 556 q 435 559 439 559 q 427 562 431 560 q 421 566 423 564 q 419 570 419 567 q 420 572 419 571 q 422 575 420 572 q 425 576 425 575 q 427 576 426 576 q 430 578 430 576 q 433 579 430 579 q 435 579 434 579 q 438 579 435 579 l 435 582 l 433 582 q 431 582 433 582 q 427 582 430 582 q 425 582 426 582 q 422 582 425 582 q 420 582 420 582 q 419 579 419 582 l 418 576 q 416 575 418 576 q 415 572 415 574 q 414 569 415 570 q 412 567 412 568 q 411 564 412 564 q 407 564 410 564 l 407 564 q 407 566 407 564 q 404 567 407 567 q 404 568 403 567 q 404 572 404 570 q 403 570 404 572 q 401 567 401 568 q 401 564 401 564 q 401 562 401 564 q 401 559 401 560 q 401 556 401 559 q 401 554 401 555 q 399 552 401 553 q 403 552 401 552 q 404 552 404 552 q 404 549 404 549 q 404 547 404 548 q 405 544 404 544 q 407 541 406 544 q 412 539 410 540 q 418 538 414 538 l 418 526 q 421 526 419 526 q 425 526 423 526 q 429 526 427 526 q 433 524 430 525 q 436 522 434 522 q 439 521 438 521 q 443 519 442 519 q 445 515 444 518 l 445 509 q 447 505 445 506 q 450 503 449 505 q 454 502 452 503 q 458 500 456 500 q 462 499 460 500 q 465 498 464 498 q 468 496 468 498 q 468 494 468 495 q 468 490 468 491 q 465 488 468 488 q 464 488 465 488 q 460 488 463 488 q 458 488 458 488 q 456 488 457 488 q 452 488 453 488 q 450 488 452 488 q 450 485 450 486 q 450 483 450 484 l 456 477 q 456 476 456 477 q 456 473 456 475 q 455 467 456 469 q 453 463 454 464 q 448 460 450 461 q 442 460 446 460 q 442 460 442 460 q 442 457 442 460 q 442 455 442 456 q 442 454 442 454 q 443 453 442 454 q 445 450 444 452 q 448 446 448 448 q 448 445 448 445 q 448 445 448 445 q 450 448 449 445 l 456 453 q 457 453 456 453 q 458 454 458 453 q 458 456 458 457 q 458 454 458 454 q 460 453 458 454 q 463 450 461 452 q 467 445 465 448 q 471 439 469 442 q 476 431 472 435 q 483 422 480 427 q 483 418 483 420 q 481 416 483 416 q 478 416 479 416 q 476 414 477 416 q 473 414 473 414 q 471 411 472 414 q 469 410 469 411 q 468 407 468 408 q 469 404 468 404 q 471 401 469 403 q 472 399 471 400 q 473 396 473 399 l 473 392 q 473 391 473 392 q 471 389 472 389 q 463 388 467 389 q 458 387 460 387 q 453 382 456 384 q 448 378 450 381 q 444 374 446 377 q 439 369 442 372 q 436 363 438 365 q 433 358 434 361 q 433 357 433 358 q 435 355 433 355 q 436 354 437 355 q 435 353 435 353 l 435 353 q 435 351 435 351 q 433 349 434 350 q 429 345 430 346 q 425 343 427 343 q 421 340 423 343 q 419 338 419 338 q 418 336 418 336 q 418 332 418 335 q 418 331 418 332 q 419 330 418 330 q 422 328 422 328 q 422 328 422 328 q 422 328 422 328 q 422 326 422 327 l 422 323 q 422 320 422 320 q 422 317 422 320 q 422 315 422 316 q 422 315 422 315 l 422 315 q 422 311 422 313 q 419 308 422 309 q 418 304 419 305 q 415 302 416 302 q 412 302 412 302 q 410 305 411 302 q 408 307 408 307 q 404 309 407 308 q 403 314 404 312 q 401 317 401 316 q 401 321 401 320 q 401 323 401 323 q 400 323 401 323 q 397 323 399 323 q 393 323 395 323 q 392 323 392 323 l 377 323 q 366 321 370 323 q 358 317 362 320 q 353 311 355 316 q 351 297 351 305 q 351 296 351 297 q 351 292 351 294 q 351 289 351 290 q 354 288 351 288 q 356 285 355 288 q 357 282 357 282 q 358 281 357 282 q 361 279 359 279 q 364 279 363 279 q 366 282 365 279 q 369 284 369 283 q 369 285 369 285 l 372 288 q 373 288 372 288 q 377 289 374 289 q 377 289 377 289 q 378 289 377 289 q 381 289 381 289 q 381 289 381 289 q 382 286 381 288 q 384 282 382 283 q 387 275 387 278 q 389 269 388 273 q 393 263 391 266 q 397 259 395 260 q 401 256 399 258 q 404 254 403 254 q 411 254 408 254 q 418 256 414 255 q 422 259 419 259 q 430 259 426 259 q 437 259 434 259 q 445 259 441 259 q 453 258 449 259 q 460 256 457 256 q 468 254 464 255 q 476 251 472 254 q 482 246 480 250 q 488 239 484 243 q 498 240 494 240 q 503 239 502 240 q 507 237 506 237 q 509 233 509 236 q 510 230 509 232 q 511 224 511 228 q 513 218 511 220 q 517 216 514 217 q 520 212 518 214 q 526 210 522 210 q 534 208 530 209 q 544 206 538 208 q 552 201 548 203 q 560 198 556 199 q 565 193 563 197 q 567 187 567 190 q 567 184 567 186 q 564 180 567 182 q 563 176 564 178 q 560 172 562 175 q 557 169 557 171 q 555 165 556 167 q 552 161 552 163 q 549 160 552 160 q 549 156 549 157 q 549 152 549 155 q 548 149 549 151 q 547 145 547 146 q 545 140 545 142 q 543 137 544 138 q 540 134 540 136 q 540 132 540 132 q 538 130 540 132 q 534 126 536 129 q 530 125 532 126 q 526 125 529 125 q 523 124 525 125 q 519 122 521 123 q 515 121 517 122 q 514 119 514 119 q 513 115 514 117 q 511 114 513 114 l 511 109 q 510 107 511 109 q 509 104 509 106 q 498 104 500 104 q 494 102 495 103 q 491 98 491 99 q 488 96 491 98 q 488 94 488 95 q 488 91 488 94 q 484 87 487 90 q 479 84 480 85 q 472 76 475 80 q 465 68 469 72 q 459 60 461 64 q 453 53 457 57 q 449 45 450 49 q 445 41 448 42 q 446 39 445 41 q 448 38 446 38 q 449 37 450 38 q 448 35 448 35 l 448 35 l 448 35 q 448 35 448 35 q 448 33 448 34 q 448 31 448 31 q 445 30 448 30 q 445 28 445 30 q 442 27 445 27 q 441 26 441 27 q 442 24 442 24 q 442 22 442 23 q 442 20 442 22 q 444 19 442 20 q 448 18 446 18 q 450 16 450 18 q 453 15 450 15 q 454 14 453 15 q 456 9 456 12 l 433 9 q 431 10 433 9 q 430 12 430 11 q 429 14 430 14 q 427 15 427 15 l 427 20 q 427 22 427 20 q 427 24 427 23 q 427 28 427 27 q 427 30 427 28 q 427 33 427 33 q 427 33 427 33 l 425 33 l 425 33 l 425 33 m 107 305 l 107 308 q 107 309 107 308 q 110 309 107 309 q 111 309 110 309 q 114 308 113 308 q 118 307 117 308 q 119 305 119 307 q 122 304 119 302 q 125 305 125 305 q 127 305 126 305 q 130 305 127 305 l 130 302 q 130 300 130 300 q 130 297 130 300 q 128 295 130 296 q 125 294 126 294 q 123 294 125 294 q 119 294 122 294 q 116 295 118 294 q 114 297 114 296 q 113 300 114 300 q 110 300 111 300 q 107 302 107 301 q 107 305 107 302 l 107 305 l 107 305 m 239 526 q 239 524 239 524 q 239 526 239 524 q 241 524 241 524 q 239 526 241 524 q 241 526 241 526 q 239 526 241 526 l 239 526 l 239 526 m 241 564 q 243 566 241 566 q 247 570 245 567 q 249 572 248 571 q 252 572 250 572 q 254 572 254 572 q 256 572 255 572 q 261 572 259 572 q 264 570 263 571 q 264 568 264 570 q 264 562 264 566 l 264 559 q 264 557 264 557 q 264 556 264 556 l 262 556 q 260 556 262 556 q 256 556 259 556 q 254 556 255 556 q 252 556 252 556 l 244 556 l 241 559 l 241 562 q 241 562 241 562 q 241 564 241 563 l 241 564 l 241 564 m 256 518 q 260 518 259 518 q 262 518 260 518 q 265 518 264 518 q 267 518 266 518 q 269 519 269 518 q 270 521 270 521 l 270 521 q 269 522 270 521 q 267 524 267 522 q 265 524 266 524 q 264 524 264 524 l 264 524 q 264 524 264 524 q 262 524 264 524 q 260 524 262 524 q 259 521 259 524 q 257 519 258 521 q 256 518 256 518 q 256 518 256 518 q 256 518 255 518 l 256 518 l 256 518 m 259 536 q 259 534 259 534 q 259 536 259 534 q 264 534 263 534 q 264 536 264 534 q 264 538 264 538 q 262 538 264 538 q 260 538 260 538 q 259 536 259 538 l 259 536 l 259 536 m 267 555 q 267 556 267 556 q 267 555 267 556 q 271 557 269 556 q 273 559 273 559 l 277 564 l 279 564 q 279 566 279 564 q 279 570 279 567 q 279 572 279 571 q 279 575 279 572 q 280 577 279 576 q 282 579 281 578 q 283 582 282 582 q 285 582 285 582 q 288 582 288 582 q 290 579 288 582 q 291 577 292 578 q 293 575 290 576 q 294 571 294 572 q 296 570 293 570 q 297 566 296 567 q 300 564 298 564 q 304 562 302 563 q 305 562 305 562 l 308 562 q 308 562 308 562 q 308 559 308 562 q 308 557 308 557 q 305 555 308 556 q 304 551 305 552 q 300 549 302 551 l 300 549 l 290 549 q 289 549 290 549 q 285 549 288 549 q 281 549 283 549 q 277 549 279 549 q 273 549 275 549 q 270 552 271 549 q 267 551 267 549 q 267 555 267 552 q 267 555 267 556 q 267 555 267 555 l 267 555 l 267 555 m 279 326 q 281 326 279 326 q 279 326 282 326 q 283 323 282 323 q 285 326 285 323 q 285 328 285 327 q 282 328 285 328 q 280 328 281 328 q 279 326 279 327 l 279 326 l 279 326 m 285 323 q 285 321 285 323 q 285 323 285 320 q 288 323 288 323 q 288 323 288 323 q 288 323 288 323 q 285 323 288 323 q 285 324 285 324 q 285 323 285 324 l 285 323 m 288 564 q 286 564 286 564 q 288 564 286 564 q 288 562 288 563 q 288 562 288 562 q 288 562 288 562 q 288 564 288 563 l 288 564 l 288 564 m 334 538 q 334 536 334 537 q 336 536 334 536 q 338 536 338 536 q 338 538 338 537 q 336 541 338 541 q 334 538 335 541 q 334 541 334 541 q 334 538 334 541 l 334 538 l 334 538 m 351 524 q 353 522 353 522 q 357 518 354 521 q 360 516 358 517 q 363 514 362 515 q 366 511 366 511 q 366 511 366 511 l 366 511 q 366 511 366 511 q 366 514 366 511 q 366 516 366 515 q 366 518 366 517 l 361 524 q 361 525 361 524 q 361 529 361 526 q 361 531 361 530 q 361 534 361 532 q 362 536 361 536 q 363 538 363 537 q 365 541 363 538 q 366 544 366 543 q 368 546 366 545 q 369 549 369 547 q 364 549 368 549 q 361 552 361 549 q 358 553 359 552 q 357 555 357 555 q 353 555 354 555 q 351 556 353 556 q 349 557 349 556 q 346 559 349 559 q 346 557 346 559 q 346 555 346 556 q 345 551 346 552 q 343 549 343 551 q 343 549 343 549 q 343 547 343 548 q 344 547 343 547 q 346 547 345 547 l 349 547 q 350 547 349 547 q 354 547 351 547 q 356 547 355 547 q 358 547 357 547 q 361 547 361 547 q 361 547 361 547 l 361 544 q 361 544 361 544 q 361 541 361 544 q 361 541 361 540 q 361 541 361 541 q 361 541 361 541 q 358 538 361 541 q 357 536 357 537 q 357 536 357 536 l 354 534 q 354 534 354 534 q 354 532 354 533 q 349 526 350 528 q 351 524 349 525 l 351 524 l 351 524 m 338 515 q 338 514 338 514 q 338 515 338 514 q 342 514 340 514 q 343 515 343 514 q 343 518 343 518 q 340 518 343 518 q 338 518 339 518 q 338 515 338 518 l 338 515 l 338 515 m 340 579 q 340 578 340 578 q 340 579 340 578 q 345 578 343 578 q 346 579 346 578 q 346 582 346 582 q 343 582 346 582 q 341 581 342 582 q 340 579 340 579 l 340 579 l 340 579 m 343 576 q 344 575 343 575 q 346 575 345 575 q 349 575 349 575 q 349 576 349 575 q 348 578 349 576 q 343 576 347 579 q 343 578 343 579 q 343 576 343 576 l 343 576 l 343 576 m 349 564 q 351 563 350 564 q 354 562 351 562 q 355 563 354 562 q 358 567 357 564 q 363 569 361 568 q 366 572 365 570 q 370 574 369 574 q 372 576 372 575 q 374 580 373 579 q 374 582 374 581 q 370 582 372 582 q 366 579 369 582 q 363 578 365 579 q 358 575 361 576 q 355 572 357 572 q 351 570 353 571 q 347 566 349 567 q 343 564 346 566 q 347 566 346 566 q 349 564 349 566 l 349 564 m 351 597 q 351 595 351 595 q 354 595 351 595 q 356 595 355 595 q 357 597 357 595 q 356 600 357 600 q 351 597 355 600 q 352 600 353 600 q 351 597 351 600 l 351 597 l 351 597 m 358 450 q 364 446 361 448 q 372 445 368 445 q 378 441 376 442 q 384 437 380 439 q 390 433 388 435 q 395 430 392 431 q 395 433 395 430 q 395 439 395 435 q 395 448 395 444 q 397 454 395 452 q 398 463 397 458 q 399 471 399 467 q 400 474 399 473 q 401 475 401 475 l 425 475 q 421 478 423 477 q 418 480 419 479 q 413 483 415 483 q 410 483 411 483 q 406 484 408 483 q 404 486 404 486 q 402 488 403 486 q 401 494 401 490 l 401 495 q 404 496 401 495 q 407 498 406 498 q 411 498 410 498 q 412 498 412 498 l 412 503 q 412 505 412 503 q 412 509 412 506 q 412 511 412 510 q 410 511 411 511 q 408 511 408 511 q 407 511 407 511 l 384 511 q 382 503 384 507 q 378 495 381 499 q 374 490 377 492 q 369 483 370 487 q 364 477 368 481 q 358 471 361 473 q 355 463 357 467 q 354 454 354 458 q 355 453 354 454 q 358 450 357 452 l 358 450 l 358 450 m 354 562 q 354 559 354 560 q 357 559 354 559 q 358 559 358 559 q 358 562 358 560 q 358 562 358 562 q 354 562 358 562 q 355 562 355 562 q 354 562 354 562 l 354 562 l 354 562 m 361 483 q 362 483 361 483 q 361 483 363 483 q 365 481 363 481 q 366 483 366 481 q 366 485 366 484 q 363 486 366 486 q 362 486 363 487 q 361 483 361 484 l 361 483 m 374 559 q 372 559 374 559 q 369 559 370 559 q 367 559 368 559 q 363 559 366 559 q 363 559 363 559 q 363 559 362 559 q 366 559 363 559 q 369 559 368 559 q 372 557 370 557 q 374 559 374 557 l 374 559 l 374 559 m 369 590 q 370 593 369 591 q 372 597 372 595 q 373 602 372 600 q 374 605 374 604 l 369 605 l 369 590 l 369 590 m 378 544 l 381 541 q 382 541 381 541 q 384 538 384 541 q 385 538 384 537 q 387 538 387 538 q 388 539 387 538 q 389 541 389 540 q 389 544 389 544 q 389 544 389 544 l 377 547 q 377 544 377 544 q 378 544 377 544 l 378 544 l 378 544 m 389 536 q 389 534 389 534 q 389 536 389 534 q 393 534 391 534 q 395 536 395 534 q 394 538 395 538 q 392 538 393 538 q 389 538 389 538 q 389 536 389 538 l 389 536 m 401 292 q 399 292 400 292 q 397 292 399 292 q 394 292 395 292 q 392 294 393 293 q 391 296 392 294 q 389 300 389 298 l 412 300 q 416 296 414 298 q 419 294 418 294 q 425 293 422 294 q 433 292 429 292 q 439 290 437 292 q 442 289 441 289 q 446 288 445 289 q 448 282 448 286 l 422 282 q 422 282 422 282 q 422 285 422 282 q 422 286 422 286 q 419 285 422 285 l 419 285 q 419 285 419 285 q 418 285 419 285 l 415 282 q 411 282 412 282 q 410 285 410 282 q 408 288 408 286 q 410 292 408 290 q 405 292 406 292 q 401 292 404 292 l 401 292 l 401 292 m 425 471 q 425 468 425 468 q 427 468 426 468 q 430 468 430 468 q 430 471 430 468 q 429 472 430 472 q 425 471 429 472 q 425 472 425 472 q 425 471 425 472 l 425 471 m 430 468 q 431 467 430 468 q 430 468 431 465 q 433 465 431 465 q 435 468 435 465 q 435 470 435 469 q 433 471 434 471 q 431 470 433 471 q 430 468 430 469 l 430 468 m 433 590 q 433 587 433 587 q 433 590 434 587 q 436 587 434 587 q 438 590 438 587 q 437 592 438 591 q 435 593 437 593 q 433 592 433 593 q 433 590 433 591 l 433 590 m 442 595 q 444 593 442 593 q 442 595 445 593 q 446 593 445 593 q 448 595 448 593 q 448 597 448 597 q 445 597 448 597 q 443 597 444 597 q 442 595 442 597 l 442 595 m 442 445 q 443 442 442 442 q 445 442 444 442 q 448 442 448 442 q 448 445 448 442 q 447 446 448 446 q 442 445 446 446 q 444 446 445 446 q 442 445 442 446 l 442 445 m 453 600 l 456 602 l 453 602 l 453 600 l 453 600 m 583 495 q 585 496 583 495 q 587 498 586 498 q 591 498 590 498 q 593 495 593 498 q 595 494 594 495 q 598 494 595 494 q 602 494 600 494 q 604 495 604 494 q 605 498 604 498 q 608 498 606 498 q 612 496 610 498 q 613 494 613 495 q 614 489 613 491 q 616 486 616 487 q 614 481 616 483 q 610 480 613 480 q 607 479 609 480 q 604 477 605 477 l 598 477 q 594 477 595 477 q 593 477 593 477 q 591 477 591 477 q 587 477 590 477 l 585 480 q 584 484 585 483 q 583 488 583 484 q 583 494 583 492 q 583 495 583 495 l 583 495 l 583 495 m 697 193 l 697 193 q 695 197 696 195 q 694 201 694 198 q 693 203 694 202 q 692 206 692 203 q 690 208 692 208 q 689 210 689 209 q 686 216 688 214 q 682 221 684 218 q 677 224 680 222 q 674 227 675 227 q 670 227 673 227 q 665 228 667 228 q 659 228 662 228 q 654 228 655 228 q 646 229 650 228 q 639 231 643 229 q 631 234 635 233 q 621 236 627 235 q 609 244 614 240 q 598 254 604 248 q 591 265 594 259 q 587 279 587 271 q 588 293 587 288 q 590 300 589 298 q 593 304 593 301 q 595 308 593 308 q 599 310 597 309 q 604 312 601 311 q 607 317 605 315 q 610 323 609 319 q 610 323 610 323 q 610 326 610 323 l 610 332 q 612 336 610 335 q 616 338 613 336 q 619 342 617 340 q 621 346 621 343 q 623 349 621 347 q 625 353 625 351 q 627 357 625 355 q 628 361 628 359 q 628 362 628 361 q 625 363 628 363 q 625 366 625 365 q 624 369 624 366 q 623 371 624 370 q 621 373 621 372 q 620 376 621 376 q 618 376 618 376 l 618 376 q 618 383 618 380 q 621 389 618 387 q 623 391 623 391 q 625 393 624 392 q 630 393 628 393 q 633 393 632 393 q 637 393 635 393 q 642 393 639 393 q 644 394 643 393 q 646 396 646 395 q 647 400 646 399 q 648 404 648 401 q 648 404 648 404 q 648 407 648 404 q 648 409 648 408 q 646 410 648 410 q 643 416 644 412 q 642 425 642 420 q 640 434 642 430 q 639 442 639 438 q 638 439 639 441 q 636 434 637 437 q 634 432 635 433 q 631 430 633 431 q 627 429 629 430 q 625 427 625 427 q 622 427 624 427 q 618 427 620 427 q 618 433 618 431 q 618 434 618 434 q 620 437 618 437 q 621 439 621 438 q 623 441 623 439 q 625 442 624 442 q 629 444 628 442 q 631 445 629 445 q 632 446 631 445 q 633 450 633 448 q 633 452 633 452 q 633 454 633 453 q 634 458 633 457 q 636 460 635 458 q 637 463 636 463 q 642 463 639 463 q 643 463 642 463 q 646 460 644 463 q 650 456 648 458 q 651 453 651 454 q 654 448 654 450 q 656 442 655 446 q 659 439 658 441 q 659 437 659 437 q 656 429 659 431 q 646 427 652 427 l 646 427 q 646 425 646 425 q 648 425 647 425 q 650 425 648 425 q 654 425 652 425 q 657 425 655 425 q 662 427 659 425 q 665 429 663 429 q 669 433 667 430 q 673 435 671 434 q 674 437 674 437 q 677 439 674 437 q 680 442 680 441 q 682 444 681 442 q 685 445 682 445 q 686 445 686 445 q 686 448 686 445 q 688 450 686 449 q 689 450 689 450 q 689 452 689 450 q 689 454 689 453 l 689 454 q 687 458 688 457 q 685 460 686 460 q 682 461 682 460 q 682 465 682 463 q 681 469 682 467 q 680 471 680 471 q 680 474 680 472 q 680 477 680 476 q 680 479 680 477 q 680 483 680 481 q 680 484 680 483 q 682 486 680 486 q 684 488 682 487 q 685 491 685 488 q 686 493 685 492 q 686 495 686 494 l 689 498 q 694 498 692 498 q 697 498 696 498 q 701 502 699 500 q 703 506 703 503 q 705 510 704 507 q 707 515 705 513 q 709 519 709 518 q 709 521 709 521 q 714 525 712 524 q 718 529 716 526 q 722 531 719 530 q 727 534 726 532 q 733 535 730 534 q 738 536 736 536 q 743 536 739 536 q 747 536 746 536 q 753 536 750 536 q 761 536 757 536 q 768 536 765 536 q 776 534 772 536 q 783 532 780 534 q 788 529 787 530 q 793 524 792 526 q 793 518 793 522 q 793 515 793 517 q 791 514 793 514 q 787 513 789 514 q 784 511 785 511 q 785 509 784 509 q 787 509 787 509 l 787 509 q 793 510 789 509 q 799 514 798 511 q 804 519 803 515 q 807 526 804 522 q 807 526 807 526 q 808 526 807 526 l 811 526 q 814 526 814 526 q 817 524 815 525 q 819 522 818 524 q 822 521 819 521 l 822 521 l 827 524 q 829 524 829 524 q 834 526 830 525 q 838 526 837 526 q 840 526 840 526 l 842 526 q 844 526 842 526 q 848 526 845 526 q 850 526 849 526 q 852 526 850 526 q 854 526 854 526 q 854 526 854 526 q 857 525 857 526 q 857 524 857 524 q 858 525 857 524 q 860 526 859 526 q 862 528 861 526 q 863 532 863 529 q 864 534 863 533 q 865 534 865 534 q 867 534 865 534 q 868 536 868 534 l 868 536 l 869 536 q 871 535 869 536 q 875 534 873 534 q 878 533 878 534 q 880 532 879 532 q 882 532 882 532 q 883 532 883 532 q 886 533 883 532 q 888 536 888 534 q 889 539 888 538 q 890 541 890 540 q 891 545 890 544 q 892 547 892 545 q 897 548 895 547 q 901 549 899 549 q 904 549 902 549 q 906 549 906 549 q 907 548 906 549 q 910 547 909 547 q 913 545 913 547 q 916 544 914 544 q 919 543 918 544 q 921 541 920 541 q 922 542 921 541 q 926 544 924 543 q 928 545 928 544 q 930 547 929 547 q 931 547 930 547 q 933 547 932 547 l 939 547 q 940 546 939 547 q 941 544 941 545 q 943 551 941 548 q 949 556 945 555 q 954 561 951 559 q 962 564 958 563 q 969 566 966 566 q 977 567 972 567 q 985 568 981 567 q 991 570 989 570 q 1000 571 996 570 q 1008 575 1004 572 q 1014 578 1012 576 q 1017 585 1016 581 l 1017 585 l 1017 585 l 1012 582 q 1012 582 1012 582 q 1010 582 1012 582 q 1010 583 1010 582 q 1008 585 1009 583 q 1004 587 1005 586 q 1002 590 1004 587 q 1000 592 1001 591 q 997 595 1000 593 q 995 597 996 597 q 994 597 994 597 l 994 597 q 995 597 994 597 q 997 600 996 598 q 1000 601 1000 602 q 1000 600 1000 600 l 987 600 q 989 604 987 602 q 991 605 990 605 q 996 606 994 605 q 1000 608 998 608 q 1003 606 1001 608 q 1008 602 1005 605 q 1011 598 1009 601 q 1015 593 1013 595 q 1019 587 1017 590 q 1023 582 1021 585 q 1026 578 1024 581 q 1028 576 1028 576 l 1051 570 q 1054 566 1053 567 q 1055 564 1055 566 q 1056 561 1055 563 q 1058 556 1057 559 q 1060 555 1058 555 q 1063 555 1062 555 q 1067 553 1065 555 q 1072 552 1069 552 q 1075 551 1073 552 q 1078 549 1077 551 q 1082 549 1081 549 q 1084 549 1084 549 q 1085 549 1084 549 q 1089 549 1086 549 q 1093 549 1090 549 q 1096 549 1095 549 q 1101 549 1099 549 q 1104 549 1103 549 q 1107 549 1105 549 q 1109 549 1109 549 q 1109 549 1109 549 q 1112 549 1109 549 q 1112 549 1112 549 q 1112 547 1112 548 q 1114 545 1112 547 q 1116 541 1115 544 q 1120 538 1119 540 q 1122 536 1120 536 l 1124 536 q 1134 536 1128 536 q 1145 538 1139 537 q 1155 541 1150 541 q 1165 541 1160 541 q 1175 541 1171 541 q 1183 538 1179 541 q 1191 536 1187 537 q 1198 534 1195 536 q 1206 530 1202 532 q 1214 529 1210 529 q 1221 527 1217 529 q 1232 524 1226 525 q 1236 524 1233 524 q 1244 521 1240 524 q 1251 521 1248 521 q 1257 518 1255 521 q 1263 518 1260 518 q 1270 515 1267 518 q 1276 515 1274 515 q 1282 515 1278 515 q 1286 513 1284 514 q 1293 511 1289 511 q 1300 510 1297 511 q 1305 509 1303 509 q 1312 505 1309 506 q 1318 503 1314 505 q 1321 499 1320 502 q 1322 494 1322 496 q 1322 492 1322 494 q 1320 491 1322 491 q 1318 488 1320 488 q 1316 486 1317 487 q 1312 483 1313 483 q 1310 480 1312 483 q 1308 479 1308 480 q 1308 477 1308 477 q 1304 478 1306 477 q 1299 480 1302 479 q 1296 483 1298 483 q 1293 483 1294 483 q 1289 483 1290 483 q 1284 480 1287 483 q 1282 471 1283 479 q 1279 460 1282 464 q 1276 455 1278 456 q 1272 452 1274 454 q 1268 449 1270 450 q 1264 448 1267 448 q 1263 448 1264 448 q 1259 448 1261 448 q 1255 447 1257 448 q 1252 445 1253 446 q 1248 444 1249 445 q 1244 442 1246 444 q 1242 442 1242 442 q 1238 442 1241 442 q 1236 441 1237 442 q 1234 439 1234 439 q 1233 436 1234 438 q 1232 434 1232 434 q 1231 431 1232 433 q 1229 427 1230 429 q 1226 423 1226 425 q 1226 419 1226 422 q 1225 418 1226 419 q 1223 414 1223 416 q 1221 412 1222 412 q 1218 410 1221 411 q 1216 407 1217 407 q 1214 407 1215 407 l 1211 404 l 1206 404 q 1206 408 1206 406 q 1206 410 1206 410 q 1206 412 1206 411 q 1206 414 1206 412 q 1206 417 1206 416 q 1206 419 1206 418 q 1206 422 1206 422 q 1206 422 1206 422 q 1206 423 1206 422 q 1206 427 1206 425 q 1206 429 1206 429 q 1206 431 1206 430 q 1206 435 1206 434 q 1208 437 1206 435 q 1209 440 1210 439 q 1211 442 1208 441 q 1212 444 1213 444 q 1211 448 1211 445 q 1207 448 1208 448 q 1203 448 1206 448 q 1201 448 1202 448 q 1198 448 1200 448 q 1196 447 1196 448 q 1194 445 1195 446 q 1190 444 1191 445 q 1188 439 1190 442 l 1162 439 l 1150 427 q 1150 426 1150 427 q 1153 425 1150 425 q 1154 425 1153 425 q 1157 425 1156 425 q 1160 425 1160 425 q 1162 425 1161 425 q 1165 425 1165 425 q 1165 425 1165 425 q 1165 418 1165 420 q 1168 414 1165 416 q 1169 410 1168 412 q 1171 404 1171 408 q 1170 395 1171 399 q 1168 387 1169 391 q 1164 378 1165 382 q 1160 370 1162 374 q 1164 366 1164 369 q 1168 361 1165 362 q 1169 356 1168 359 q 1171 350 1171 353 q 1171 349 1171 350 q 1171 346 1171 347 q 1171 343 1171 343 q 1171 343 1171 343 l 1168 340 q 1161 336 1168 340 q 1153 332 1154 332 q 1149 330 1150 331 q 1147 328 1149 330 q 1145 326 1145 326 q 1145 326 1145 326 l 1145 323 q 1145 321 1145 323 q 1142 320 1145 320 l 1142 320 q 1139 320 1141 320 q 1137 323 1137 320 q 1135 326 1137 324 q 1134 330 1134 328 q 1135 334 1134 332 q 1137 338 1135 336 q 1140 340 1139 340 q 1142 343 1141 340 q 1146 345 1145 345 q 1147 349 1147 346 q 1149 352 1147 350 q 1150 355 1150 354 q 1150 359 1150 358 q 1150 361 1150 361 q 1149 364 1150 362 q 1147 369 1149 366 q 1145 372 1145 370 q 1145 376 1145 374 q 1145 380 1145 378 q 1145 384 1145 381 l 1145 387 l 1147 389 q 1149 391 1147 389 q 1150 393 1150 392 q 1150 397 1150 396 q 1150 399 1150 397 q 1150 399 1150 399 q 1150 401 1150 400 l 1150 404 q 1146 397 1147 400 q 1142 391 1145 395 q 1138 385 1141 388 q 1133 378 1135 381 l 1130 376 l 1130 369 q 1124 364 1126 366 q 1119 361 1122 362 q 1117 356 1118 359 q 1116 350 1116 353 q 1116 347 1116 349 q 1114 343 1116 345 q 1112 340 1114 340 q 1107 340 1111 340 q 1103 340 1104 340 q 1101 343 1101 340 q 1100 345 1101 345 q 1099 349 1099 346 q 1099 351 1099 350 q 1096 353 1099 353 q 1094 354 1095 353 q 1092 355 1093 355 l 1092 355 q 1090 355 1092 355 q 1086 353 1088 355 q 1084 353 1084 353 q 1084 353 1084 353 l 1084 353 l 1084 350 q 1084 350 1084 350 q 1086 350 1084 350 q 1086 350 1086 350 q 1089 350 1086 350 q 1090 350 1090 350 q 1089 349 1089 350 q 1088 345 1089 346 q 1086 343 1088 343 q 1084 342 1084 343 q 1084 338 1084 340 q 1084 334 1084 336 q 1086 330 1084 332 q 1088 326 1086 328 q 1089 323 1089 324 q 1087 315 1089 319 q 1084 308 1085 311 q 1079 302 1082 305 q 1073 297 1076 300 q 1067 294 1070 296 q 1061 292 1063 292 q 1053 290 1057 290 q 1048 288 1050 289 q 1048 287 1048 288 q 1046 285 1047 286 q 1046 282 1046 282 q 1046 282 1046 282 l 1043 279 l 1040 279 l 1040 289 l 1035 289 q 1034 287 1035 288 q 1032 285 1032 286 q 1032 283 1032 285 q 1031 282 1032 282 l 1031 279 l 1043 264 q 1043 262 1043 264 q 1043 259 1043 260 q 1042 256 1043 258 q 1038 251 1040 254 q 1034 248 1036 250 q 1032 244 1032 245 q 1029 236 1029 239 q 1028 233 1028 233 l 1028 233 l 1028 233 q 1025 237 1025 236 q 1023 239 1024 237 q 1021 241 1023 240 q 1020 241 1020 241 l 1017 244 q 1016 245 1017 244 q 1012 248 1015 247 l 1012 241 q 1014 240 1012 241 q 1017 236 1016 239 q 1021 233 1020 235 q 1023 228 1021 231 q 1025 224 1024 227 q 1028 221 1025 222 q 1029 217 1028 218 q 1031 213 1031 216 l 1031 213 l 1028 210 q 1029 205 1028 208 q 1032 201 1031 202 q 1037 197 1035 198 q 1043 195 1039 195 q 1050 193 1047 194 q 1055 190 1053 193 q 1061 188 1058 189 q 1063 183 1063 187 q 1062 183 1063 183 q 1058 183 1061 183 q 1055 183 1057 183 q 1053 183 1053 183 q 1044 184 1050 183 q 1035 187 1039 186 q 1027 193 1032 190 q 1017 198 1021 197 q 1010 204 1013 199 q 1005 213 1006 209 q 1001 222 1002 217 q 1000 231 1000 228 q 1003 231 1001 231 q 1005 228 1005 231 q 1006 227 1005 228 q 1010 227 1008 227 l 1012 227 q 1011 232 1012 228 q 1010 241 1010 236 q 1006 252 1008 247 q 1002 262 1004 256 q 998 271 1001 267 q 991 279 994 275 q 986 286 989 283 q 979 288 983 288 q 976 288 978 288 q 974 288 974 288 l 967 279 q 965 279 967 279 q 962 279 963 279 q 960 279 960 279 q 956 279 959 279 q 953 276 955 278 q 949 271 951 274 q 946 267 947 270 q 944 262 945 263 q 941 256 941 259 q 939 251 940 254 q 935 248 937 250 q 930 247 933 247 q 930 247 930 247 q 929 247 930 247 l 929 247 l 929 248 q 928 250 929 248 q 926 254 928 252 q 924 257 924 256 q 924 259 925 258 q 922 261 921 260 q 924 262 924 262 q 924 262 924 262 q 924 264 924 262 q 923 266 924 264 q 921 267 922 267 l 918 269 q 918 269 918 269 q 918 271 918 270 q 918 273 918 271 q 918 277 918 275 q 918 281 918 279 q 918 285 918 282 q 918 288 918 286 q 918 292 918 290 q 918 295 918 294 q 918 297 918 296 q 918 298 918 297 q 916 302 918 300 q 914 304 916 304 q 913 308 913 305 q 911 310 913 309 q 910 312 910 311 l 909 315 q 908 315 909 315 q 906 317 907 316 l 906 317 l 875 317 q 875 316 875 317 q 872 315 875 315 q 870 315 871 315 q 868 315 869 315 q 865 315 865 315 q 863 315 864 315 q 860 315 860 315 q 860 315 860 315 q 860 315 860 315 q 860 312 860 315 l 860 309 l 865 305 q 865 300 865 302 q 860 294 864 298 q 852 288 856 290 q 845 282 848 286 q 836 276 841 278 q 827 271 830 274 q 820 269 823 270 q 814 267 817 267 l 834 267 q 833 255 834 260 q 829 247 831 250 q 823 239 827 243 q 814 231 818 235 q 806 224 810 228 q 799 216 803 220 q 794 208 795 212 q 793 201 793 205 q 794 194 793 197 q 796 187 795 191 q 798 182 798 186 q 799 175 799 179 q 798 169 799 171 q 796 165 798 167 q 793 161 795 163 q 788 157 791 159 q 785 155 787 156 q 781 152 783 155 q 777 150 779 151 q 776 146 776 149 q 776 146 776 146 q 776 145 776 146 q 776 142 776 142 q 776 142 776 142 l 776 137 q 776 135 776 136 q 773 132 776 134 q 772 130 773 130 q 770 126 770 129 q 769 124 770 125 q 768 122 768 123 q 767 119 768 119 q 766 117 766 118 q 762 111 764 113 q 761 106 761 109 q 758 104 761 104 q 755 102 755 103 q 753 100 754 102 q 750 99 753 99 q 748 97 749 99 q 746 91 747 95 l 732 91 q 723 92 727 91 q 718 94 719 92 q 713 97 716 95 q 709 102 709 99 q 707 106 708 103 q 707 111 707 110 q 707 118 707 115 q 705 125 707 121 q 705 130 705 127 q 703 137 704 133 q 701 144 703 141 q 697 149 699 146 l 697 193 l 697 193 l 697 193 m 788 288 q 793 281 791 283 q 796 274 795 278 q 800 268 798 270 q 807 264 803 266 q 811 260 810 262 q 814 256 812 258 l 814 259 q 814 266 814 263 q 811 271 814 269 q 808 277 810 275 q 804 282 806 279 q 799 287 802 283 q 793 292 796 290 q 790 297 792 294 q 787 302 788 300 l 787 297 q 787 292 787 296 q 788 288 787 289 l 788 288 l 788 288 m 808 137 q 808 138 808 137 q 808 142 808 140 q 809 146 808 144 q 811 149 810 148 q 812 154 811 152 q 814 157 812 156 q 815 159 817 159 q 814 163 814 160 q 818 160 817 160 q 819 160 819 160 q 821 160 819 160 q 822 163 822 160 q 822 164 822 163 q 825 165 822 165 l 827 167 q 830 167 829 167 q 831 165 831 167 q 831 162 831 163 q 831 160 831 161 q 831 155 831 157 q 831 149 831 153 q 830 144 831 146 q 829 137 829 141 q 827 130 829 133 q 825 125 826 127 q 820 121 822 122 q 817 119 818 119 q 814 119 815 119 q 814 122 814 119 q 812 124 814 123 q 811 126 811 125 q 811 130 811 129 q 811 132 811 130 q 809 135 810 134 q 808 137 808 136 l 808 137 l 808 137 l 808 137 l 808 137 m 857 552 q 863 557 859 555 q 869 562 867 560 q 878 566 873 564 q 888 567 882 567 q 898 568 894 567 q 906 570 902 570 q 904 566 906 567 q 901 562 902 564 q 895 559 899 560 q 888 556 891 559 q 882 554 884 555 q 875 552 879 553 q 869 547 871 549 q 868 541 868 545 q 868 538 868 540 q 868 536 868 536 q 868 534 868 534 q 868 532 868 533 l 865 529 q 863 529 865 529 q 860 529 861 529 q 857 529 859 529 q 854 529 854 529 l 854 532 q 854 543 853 538 q 857 552 856 548 l 857 552 l 857 552 m 1010 216 q 1010 214 1010 214 q 1010 216 1010 214 q 1013 214 1012 214 q 1015 216 1015 214 q 1015 218 1015 217 q 1012 218 1015 218 q 1010 218 1010 218 q 1010 216 1010 217 l 1010 216 l 1010 216 m 1012 579 q 1012 578 1012 578 q 1012 579 1012 578 q 1016 578 1015 578 q 1017 579 1017 578 q 1017 582 1017 582 q 1015 582 1017 582 q 1013 581 1013 582 q 1012 579 1012 579 l 1012 579 l 1012 579 m 1012 213 q 1013 211 1012 212 q 1015 210 1013 210 q 1017 211 1017 210 q 1017 213 1017 212 q 1015 216 1016 216 q 1012 213 1015 216 q 1012 216 1012 216 q 1012 213 1012 216 l 1012 213 l 1012 213 m 1040 210 q 1044 214 1042 213 q 1051 216 1047 216 q 1056 219 1053 217 q 1061 221 1059 221 q 1064 223 1062 222 q 1066 224 1066 224 q 1068 223 1067 224 q 1069 221 1069 222 q 1069 218 1069 218 q 1069 216 1069 217 q 1067 208 1069 212 q 1063 203 1065 205 q 1060 197 1062 201 q 1055 190 1058 193 l 1051 190 q 1044 192 1047 190 q 1038 195 1040 194 q 1034 201 1036 197 q 1032 208 1032 205 q 1038 208 1036 208 q 1040 210 1039 209 l 1040 210 l 1040 210 m 1127 68 q 1124 70 1124 68 q 1122 73 1124 72 q 1118 75 1120 75 q 1114 79 1116 76 q 1110 81 1112 80 q 1107 81 1108 81 q 1105 81 1107 81 q 1101 81 1104 81 q 1098 81 1100 81 q 1096 81 1096 81 q 1095 80 1096 81 q 1092 79 1093 79 q 1087 77 1089 79 q 1081 76 1085 76 q 1076 75 1080 76 q 1072 73 1073 73 q 1067 73 1069 73 q 1063 73 1065 73 l 1061 73 q 1061 80 1061 77 q 1058 85 1061 83 q 1056 92 1057 88 q 1053 96 1055 95 q 1050 101 1051 98 q 1048 106 1050 104 q 1046 112 1046 109 q 1046 119 1046 115 q 1046 123 1046 121 q 1046 125 1046 125 q 1046 127 1046 126 q 1048 129 1046 129 q 1056 131 1053 129 q 1063 134 1059 133 q 1071 138 1067 136 q 1078 145 1074 141 q 1086 149 1082 146 q 1092 152 1089 151 q 1095 155 1093 155 q 1099 155 1097 155 l 1099 155 q 1099 155 1099 155 q 1101 155 1100 155 q 1101 155 1101 155 q 1101 152 1101 155 l 1109 163 l 1133 163 q 1134 162 1134 163 q 1134 160 1134 161 q 1134 157 1134 157 q 1134 155 1134 156 q 1134 153 1134 153 q 1134 149 1134 152 q 1135 147 1134 148 q 1137 146 1135 146 q 1140 159 1137 153 q 1145 167 1143 164 l 1145 167 l 1145 167 q 1146 165 1145 167 q 1150 160 1147 164 q 1153 152 1152 156 q 1154 145 1154 148 q 1159 138 1157 141 q 1162 132 1161 134 q 1166 129 1165 130 q 1171 129 1168 127 q 1177 122 1175 126 q 1180 114 1179 118 q 1183 106 1183 110 q 1183 96 1183 102 l 1183 91 q 1183 89 1183 90 q 1183 85 1183 88 q 1183 83 1183 84 q 1180 81 1183 83 q 1179 77 1180 79 q 1175 71 1177 75 q 1172 64 1173 66 q 1171 61 1171 62 q 1169 57 1171 58 q 1168 56 1168 56 l 1139 56 l 1127 68 q 1128 68 1128 68 q 1127 68 1128 68 l 1127 68 l 1127 68 m 1086 274 q 1088 273 1088 274 q 1092 271 1089 271 q 1092 269 1092 270 q 1092 267 1092 269 q 1092 263 1092 264 q 1092 262 1092 262 q 1092 259 1092 262 q 1093 256 1092 256 q 1095 253 1093 255 q 1099 251 1097 251 q 1099 251 1099 251 q 1099 248 1099 251 q 1099 248 1099 248 q 1096 248 1099 248 l 1096 248 q 1091 249 1095 248 q 1086 251 1088 250 q 1082 256 1084 254 q 1081 259 1081 258 q 1080 264 1081 260 q 1078 269 1078 267 q 1078 275 1078 271 q 1078 279 1078 278 q 1082 275 1081 275 q 1086 274 1084 274 l 1086 274 l 1086 274 m 1078 208 l 1081 210 q 1084 212 1084 210 q 1086 213 1084 213 q 1088 213 1088 213 q 1092 213 1089 213 l 1093 213 q 1095 213 1093 213 q 1096 210 1096 213 q 1094 209 1095 210 q 1093 206 1093 208 q 1093 202 1093 203 q 1092 201 1093 201 q 1091 197 1092 198 q 1089 195 1090 197 q 1086 194 1086 194 q 1086 195 1086 194 q 1086 195 1086 195 q 1084 195 1085 195 q 1082 197 1082 195 q 1081 198 1081 198 l 1076 203 q 1076 205 1076 205 q 1078 208 1077 206 l 1078 208 l 1078 208 m 1086 236 q 1088 237 1086 236 q 1092 239 1089 239 l 1092 239 q 1097 237 1095 239 q 1099 231 1099 235 q 1099 229 1099 229 q 1099 227 1099 228 q 1097 224 1099 224 q 1093 224 1096 224 q 1093 224 1093 224 q 1092 227 1092 224 q 1090 228 1092 228 q 1089 228 1089 228 q 1088 228 1089 228 q 1086 228 1088 228 q 1084 227 1084 228 q 1084 227 1084 227 l 1086 227 q 1084 227 1084 227 q 1084 228 1084 228 l 1084 231 l 1086 236 l 1086 236 m 1119 201 q 1123 199 1122 201 q 1127 198 1124 198 q 1131 196 1128 197 q 1134 195 1133 195 l 1137 195 q 1138 196 1137 195 q 1139 198 1139 197 q 1142 198 1142 198 q 1142 198 1142 198 q 1147 197 1145 198 q 1153 195 1149 197 q 1158 192 1156 194 q 1165 187 1161 190 q 1171 184 1169 186 q 1175 178 1173 182 q 1179 174 1177 176 q 1183 167 1181 171 q 1181 165 1183 165 q 1180 165 1180 165 q 1178 165 1179 165 q 1177 165 1177 165 q 1171 165 1175 165 q 1162 167 1166 165 q 1154 170 1158 170 q 1145 172 1149 171 q 1135 178 1141 175 q 1124 186 1128 182 q 1121 191 1123 187 q 1119 201 1119 195 q 1119 198 1119 198 q 1119 201 1119 198 l 1119 201 l 1119 201 m 1157 384 l 1157 384 q 1155 384 1156 384 q 1154 384 1154 384 l 1154 384 q 1154 381 1153 381 q 1157 384 1156 381 q 1157 381 1157 381 q 1157 384 1157 381 q 1157 381 1157 381 q 1157 384 1157 381 l 1157 384 m 1160 47 q 1164 47 1162 47 q 1168 47 1165 47 q 1171 47 1169 47 q 1173 45 1173 47 q 1175 43 1175 45 q 1175 41 1175 42 q 1175 36 1175 38 q 1173 33 1175 34 q 1168 29 1171 31 q 1165 27 1166 27 q 1163 28 1164 27 q 1160 30 1162 28 q 1158 33 1158 33 q 1157 35 1157 34 q 1157 39 1157 37 q 1154 41 1157 41 q 1154 43 1154 42 q 1154 45 1154 45 q 1156 47 1154 47 q 1160 47 1158 47 l 1160 47 l 1160 47 m 1249 56 q 1248 59 1249 57 q 1246 64 1246 61 q 1246 67 1246 65 q 1244 73 1246 69 q 1244 77 1244 75 q 1244 81 1244 79 q 1246 81 1244 83 q 1249 79 1249 80 q 1251 75 1249 76 q 1255 73 1252 75 q 1257 71 1256 72 q 1257 68 1257 71 q 1259 65 1257 66 q 1261 64 1260 64 q 1263 64 1261 64 q 1267 64 1265 64 q 1269 64 1268 64 q 1272 64 1270 64 l 1272 64 q 1270 59 1272 61 q 1267 53 1268 57 q 1261 45 1265 49 q 1255 38 1257 42 q 1246 31 1251 34 q 1238 24 1242 27 q 1233 22 1236 23 q 1226 20 1230 20 q 1226 24 1226 22 q 1229 27 1226 26 q 1232 33 1230 31 q 1237 38 1234 35 q 1240 43 1238 39 q 1244 47 1242 46 q 1248 50 1246 50 q 1252 47 1249 50 q 1251 52 1252 50 q 1249 56 1249 54 l 1249 56 l 1249 56 z "},"":{"ha":1389,"x_min":174,"x_max":1215,"o":"m 465 369 q 532 538 465 468 q 694 608 600 608 q 857 538 789 608 q 924 369 924 468 q 857 200 924 270 q 694 130 789 130 q 532 200 600 130 q 465 369 465 270 l 465 369 m 174 347 q 210 300 174 347 q 315 195 247 252 q 480 91 384 138 q 697 43 576 43 q 913 91 817 43 q 1076 195 1009 138 q 1179 300 1143 252 q 1215 347 1215 347 q 1179 401 1215 347 q 1076 521 1143 456 q 913 640 1009 586 q 697 694 817 694 q 481 640 578 694 q 316 521 384 586 q 211 401 248 456 q 174 347 174 347 l 174 347 m 545 369 q 589 260 545 305 q 694 214 633 214 q 800 260 755 214 q 844 369 844 305 q 841 397 844 382 q 834 423 838 411 q 811 399 826 408 q 780 391 796 391 q 734 410 753 391 q 716 457 716 430 q 724 491 716 476 q 746 514 732 506 q 721 522 734 519 q 694 524 708 524 q 589 478 633 524 q 545 369 545 433 l 545 369 z "},"":{"ha":1389,"x_min":174,"x_max":1215,"o":"m 726 410 q 743 451 726 434 q 785 468 761 468 q 829 451 811 468 q 846 410 846 434 q 829 368 846 385 q 785 350 811 350 q 743 368 761 350 q 726 410 726 385 l 726 410 m 465 369 q 532 538 465 468 q 694 608 600 608 q 857 538 789 608 q 924 369 924 468 q 857 200 924 270 q 694 130 789 130 q 532 200 600 130 q 465 369 465 270 l 465 369 m 174 347 q 210 300 174 347 q 315 195 247 252 q 480 91 384 138 q 697 43 576 43 q 913 91 817 43 q 1076 195 1009 138 q 1179 300 1143 252 q 1215 347 1215 347 q 1179 401 1215 347 q 1076 521 1143 456 q 913 640 1009 586 q 697 694 817 694 q 481 640 578 694 q 316 521 384 586 q 211 401 248 456 q 174 347 174 347 l 174 347 z "},"":{"ha":1389,"x_min":209,"x_max":1180,"o":"m 821 764 l 1180 764 l 1180 -134 l 821 764 m 568 764 l 209 764 l 209 -134 l 568 764 m 694 433 l 924 -134 l 773 -134 l 696 73 l 544 73 l 694 433 z "},"":{"ha":1389,"x_min":190,"x_max":1181,"o":"m 841 681 q 724 661 777 681 q 624 604 670 642 l 692 556 q 753 589 719 575 q 840 604 788 604 q 945 583 895 604 q 1031 521 994 562 q 1084 437 1065 484 q 1103 340 1103 391 q 1084 245 1103 292 q 1032 161 1065 198 q 945 100 996 121 q 840 79 895 79 q 761 91 815 79 q 654 156 707 103 l 500 309 q 490 317 496 313 q 476 323 483 321 q 463 324 469 324 q 445 313 456 324 q 432 286 433 301 q 437 264 431 270 l 600 100 q 710 27 648 53 q 841 1 772 1 q 977 28 913 1 q 1088 107 1040 56 q 1156 216 1133 155 q 1180 340 1180 277 q 1157 465 1180 404 q 1090 573 1134 525 q 983 651 1046 621 q 841 681 920 681 l 841 681 m 795 359 q 747 407 792 361 q 670 483 701 453 q 579 538 632 521 q 483 555 526 555 q 351 524 403 555 q 273 463 300 494 q 223 375 241 425 q 205 277 205 326 q 224 175 205 225 q 281 85 244 125 q 373 23 320 43 q 484 3 426 3 l 601 3 l 519 79 l 481 80 q 342 138 400 80 q 283 278 283 195 q 347 422 283 369 q 481 476 410 476 q 553 462 517 476 q 610 427 590 448 q 658 380 618 420 q 719 320 697 340 l 730 309 q 739 302 731 307 q 762 297 746 297 l 764 297 q 777 299 768 297 q 795 311 785 301 q 802 322 799 316 q 804 335 804 328 q 801 349 804 343 q 795 359 798 355 l 795 359 m 1180 678 q 1027 781 1114 745 q 845 817 940 817 q 641 770 723 817 q 521 688 559 724 q 500 690 510 689 q 480 690 490 690 q 323 659 397 690 q 190 570 248 628 q 100 434 130 510 q 69 279 69 358 q 100 123 69 199 q 190 -12 130 47 q 324 -103 250 -72 q 480 -134 399 -134 l 845 -134 q 1029 -97 940 -134 q 1181 5 1118 -60 q 1285 162 1251 75 q 1320 341 1320 250 q 1285 520 1320 433 q 1180 678 1251 608 l 1180 678 m 845 -98 l 480 -98 q 338 -68 407 -98 q 217 15 270 -39 q 134 138 161 69 q 107 278 107 206 q 134 419 107 350 q 217 543 161 488 q 338 624 270 595 q 480 652 406 652 q 506 651 494 652 q 530 648 518 650 l 534 648 l 537 651 q 644 729 566 680 q 845 779 723 779 q 1013 745 933 779 q 1154 651 1092 712 q 1250 507 1218 587 q 1282 342 1282 426 q 1250 177 1282 258 q 1153 31 1218 96 q 1014 -63 1096 -28 q 845 -98 932 -98 l 845 -98 z "},"":{"ha":1389,"x_min":68,"x_max":1248,"o":"m 524 -109 q 496 -180 524 -151 q 431 -210 469 -210 q 365 -180 392 -210 q 338 -109 338 -151 q 365 -38 338 -68 q 431 -8 392 -8 q 496 -38 469 -8 q 524 -109 524 -68 l 524 -109 m 1055 -109 q 1028 -180 1055 -151 q 963 -210 1001 -210 q 898 -180 925 -210 q 871 -109 871 -151 q 898 -38 871 -68 q 963 -8 925 -8 q 1028 -38 1001 -8 q 1055 -109 1055 -68 l 1055 -109 m 1086 138 q 981 138 1084 138 q 757 138 879 138 q 533 138 635 138 q 431 138 431 138 l 458 224 l 1040 224 q 1069 235 1057 224 q 1085 262 1082 245 l 1248 701 q 1238 740 1252 723 q 1202 757 1225 757 l 1198 757 l 1198 758 l 293 758 l 248 879 q 233 907 247 897 q 203 918 220 918 l 114 918 q 81 905 95 918 q 68 872 68 891 q 81 840 68 853 q 114 826 95 826 l 163 826 l 369 273 l 324 96 q 332 52 319 75 q 369 30 346 30 q 479 30 369 30 q 723 30 590 30 q 968 30 856 30 q 1086 30 1081 30 q 1119 48 1105 30 q 1133 85 1133 66 q 1119 121 1133 104 q 1086 138 1105 138 l 1086 138 m 330 661 l 1131 661 l 1002 317 l 456 317 l 330 661 l 330 661 z "},"":{"ha":1389,"x_min":278,"x_max":1111,"o":"m 694 278 l 694 278 q 646 298 666 278 q 625 347 625 319 l 625 833 q 646 883 625 863 q 694 903 666 903 l 694 903 q 743 883 723 903 q 764 833 764 863 l 764 347 q 743 298 764 319 q 694 278 723 278 l 694 278 m 935 688 l 876 572 q 956 475 926 533 q 986 347 986 416 q 963 234 986 288 q 901 141 940 180 q 808 79 861 102 q 694 56 754 56 q 581 79 635 56 q 488 141 528 102 q 426 234 449 180 q 403 347 403 288 q 433 475 403 416 q 513 572 463 533 l 454 688 q 326 542 374 631 q 278 347 278 453 q 311 184 278 260 q 399 52 343 109 q 532 -37 456 -4 q 694 -69 608 -69 q 857 -37 781 -69 q 989 52 933 -4 q 1078 184 1046 109 q 1111 347 1111 260 q 1063 542 1111 453 q 935 688 1015 631 l 935 688 z "},"":{"ha":1389,"x_min":69,"x_max":1320,"o":"m 722 278 q 667 319 666 278 q 667 359 667 359 q 734 458 707 401 q 762 585 762 515 q 704 768 762 693 q 557 842 646 842 q 409 766 471 842 q 347 579 347 689 q 372 460 347 515 q 435 368 396 404 q 434 323 435 368 q 373 278 433 278 q 326 262 373 278 q 221 210 278 247 q 117 114 164 174 q 69 -35 69 54 l 69 -69 l 1042 -69 l 1042 -35 q 991 114 1042 54 q 881 210 941 174 q 771 262 821 247 q 722 278 722 278 l 722 278 m 1027 317 q 977 355 977 317 q 978 392 978 392 q 1038 482 1013 430 q 1063 597 1063 534 q 1010 765 1063 697 q 878 833 958 833 q 836 827 856 833 q 798 811 817 822 q 848 707 830 765 q 865 585 865 650 q 849 470 865 526 q 802 363 833 414 q 911 314 854 345 q 1018 239 968 283 q 1102 135 1067 194 q 1143 0 1137 76 l 1320 0 l 1320 31 q 1274 168 1320 113 q 1173 256 1227 222 q 1072 303 1118 289 q 1027 317 1027 317 l 1027 317 z "},"":{"ha":1389,"x_min":209,"x_max":1180,"o":"m 860 278 q 806 319 804 278 q 807 359 807 359 q 873 458 846 401 q 901 585 901 515 q 842 768 901 693 q 697 842 784 842 q 549 766 610 842 q 487 579 487 689 q 511 460 487 515 q 574 368 536 404 q 572 323 574 368 q 513 278 571 278 q 465 262 513 278 q 361 210 418 247 q 256 114 304 174 q 209 -35 209 54 l 209 -69 l 1180 -69 l 1180 -35 q 1131 114 1180 54 q 1021 210 1081 174 q 910 262 960 247 q 860 278 860 278 l 860 278 z "},"":{"ha":1389,"x_min":347,"x_max":1111,"o":"m 347 903 l 347 -209 l 1111 -209 l 1111 903 l 347 903 l 347 903 m 972 -69 l 486 -69 l 486 764 l 972 764 l 972 -69 l 972 -69 z "},"":{"ha":1389,"x_min":0,"x_max":1389,"o":"m 0 625 l 0 69 l 1389 69 l 1389 625 l 0 625 l 0 625 m 1251 209 l 138 209 l 138 486 l 1251 486 l 1251 209 l 1251 209 z "},"":{"ha":1389,"x_min":347,"x_max":1042,"o":"m 347 694 l 347 0 l 1042 0 l 1042 694 l 347 694 l 347 694 m 903 138 l 486 138 l 486 556 l 903 556 l 903 138 l 903 138 z "},"":{"ha":1389,"x_min":138,"x_max":1251,"o":"m 138 694 l 138 0 l 1251 0 l 1251 694 l 138 694 l 138 694 m 1111 138 l 278 138 l 278 556 l 1111 556 l 1111 138 l 1111 138 z "},"":{"ha":1389,"x_min":174,"x_max":1215,"o":"m 1042 694 l 1042 868 l 174 868 l 174 0 l 347 0 l 347 -174 l 1215 -174 l 1215 694 l 1042 694 l 1042 694 m 347 87 l 260 87 l 260 781 l 955 781 l 955 694 l 347 694 l 347 87 l 347 87 m 1128 -87 l 434 -87 l 434 608 l 825 608 l 825 217 l 933 304 l 1042 217 l 1042 608 l 1128 608 l 1128 -87 l 1128 -87 z "},"":{"ha":1389,"x_min":66,"x_max":1322,"o":"m 1124 761 l 1124 959 l 66 959 l 66 -99 l 264 -99 l 264 -297 l 1322 -297 l 1322 761 l 1124 761 l 1124 761 m 264 -33 l 133 -33 l 133 892 l 1058 892 l 1058 761 l 264 761 l 264 -33 l 264 -33 m 1256 -232 l 331 -232 l 331 694 l 827 694 l 827 165 l 975 297 l 1124 165 l 1124 694 l 1256 694 l 1256 -232 l 1256 -232 z "},"":{"ha":1389,"x_min":278,"x_max":1111,"o":"m 972 625 l 972 69 l 416 69 l 416 625 l 972 625 l 972 625 m 1006 764 l 382 764 q 309 733 339 764 q 278 659 278 703 l 278 35 q 309 -39 278 -8 q 382 -69 339 -69 l 1006 -69 q 1080 -39 1050 -69 q 1111 35 1111 -8 l 1111 659 q 1080 733 1111 703 q 1006 764 1050 764 l 1006 764 l 1006 764 z "},"":{"ha":1389,"x_min":278,"x_max":1111,"o":"m 1006 764 l 382 764 q 309 733 339 764 q 278 659 278 703 l 278 35 q 309 -39 278 -8 q 382 -69 339 -69 l 1006 -69 q 1080 -39 1050 -69 q 1111 35 1111 -8 l 1111 659 q 1080 733 1111 703 q 1006 764 1050 764 l 1006 764 m 994 448 l 665 117 q 638 100 652 106 q 608 94 624 94 q 577 100 591 94 q 551 117 563 106 l 395 274 q 378 299 384 285 q 372 330 372 313 q 378 360 372 346 q 395 387 384 374 q 452 410 418 410 q 507 387 486 410 l 608 286 l 882 560 q 937 583 903 583 q 994 560 971 583 q 1011 534 1005 548 q 1017 503 1017 519 q 1011 473 1017 487 q 994 448 1005 458 l 994 448 z "},"":{"ha":1389,"x_min":278,"x_max":1111,"o":"m 1006 764 l 382 764 q 309 733 339 764 q 278 659 278 703 l 278 35 q 309 -39 278 -8 q 382 -69 339 -69 l 1006 -69 q 1080 -39 1050 -69 q 1111 35 1111 -8 l 1111 659 q 1080 733 1111 703 q 1006 764 1050 764 l 1006 764 m 903 278 l 486 278 q 437 298 457 278 q 416 347 416 319 q 437 396 416 376 q 486 416 457 416 l 903 416 q 952 396 932 416 q 972 347 972 376 q 952 298 972 319 q 903 278 932 278 l 903 278 z "},"":{"ha":1389,"x_min":104,"x_max":1284,"o":"m 730 427 q 750 475 730 456 q 798 494 770 494 q 846 475 826 494 q 867 427 867 456 q 846 380 867 400 q 798 361 826 361 q 750 380 770 361 q 730 427 730 400 l 730 427 m 435 382 q 456 488 435 438 q 511 574 476 537 q 593 631 547 610 q 694 652 640 652 q 795 631 749 652 q 878 574 842 610 q 933 488 913 537 q 954 382 954 438 q 933 277 954 326 q 878 191 913 228 q 795 132 842 153 q 694 111 749 111 q 593 132 640 111 q 511 191 547 153 q 456 277 476 228 q 435 382 435 326 l 435 382 m 104 357 q 146 303 104 357 q 264 185 187 250 q 452 67 342 121 q 697 14 562 14 q 943 67 834 14 q 1127 185 1051 121 q 1244 303 1203 250 q 1284 357 1284 357 q 1244 418 1284 357 q 1127 554 1203 480 q 943 690 1051 628 q 697 751 834 751 q 452 690 562 751 q 266 554 343 628 q 146 418 189 480 q 104 357 104 357 l 104 357 z "},"":{"ha":1389,"x_min":278,"x_max":1111,"o":"m 694 625 q 802 604 751 625 q 891 544 853 582 q 951 455 929 506 q 972 347 972 404 q 951 239 972 290 q 891 151 929 189 q 802 91 853 113 q 694 69 751 69 q 587 91 637 69 q 498 151 536 113 q 438 239 460 189 q 416 347 416 290 q 438 455 416 404 q 498 544 460 506 q 587 604 536 582 q 694 625 637 625 l 694 625 m 694 764 q 532 731 608 764 q 399 642 456 699 q 311 510 343 586 q 278 347 278 434 q 311 184 278 260 q 399 52 343 109 q 532 -37 456 -4 q 694 -69 608 -69 q 857 -37 781 -69 q 989 52 933 -4 q 1078 184 1046 109 q 1111 347 1111 260 q 1078 510 1111 434 q 989 642 1046 586 q 857 731 933 699 q 694 764 781 764 l 694 764 l 694 764 z "},"":{"ha":1389,"x_min":278,"x_max":1111,"o":"m 694 764 q 532 731 608 764 q 399 642 456 699 q 311 510 343 586 q 278 347 278 434 q 311 184 278 260 q 399 52 343 109 q 532 -37 456 -4 q 694 -69 608 -69 q 857 -37 781 -69 q 989 52 933 -4 q 1078 184 1046 109 q 1111 347 1111 260 q 1078 510 1111 434 q 989 642 1046 586 q 857 731 933 699 q 694 764 781 764 l 694 764 l 694 764 z "},"":{"ha":1389,"x_min":104,"x_max":1284,"o":"m 420 382 q 442 495 420 442 q 501 587 464 548 q 588 649 538 627 q 694 671 637 671 q 801 649 751 671 q 888 587 850 627 q 947 495 925 548 q 968 382 968 442 q 947 269 968 321 q 888 178 925 217 q 801 115 850 138 q 694 92 751 92 q 588 115 637 92 q 501 178 538 138 q 442 269 464 217 q 420 382 420 321 l 420 382 m 104 357 q 146 302 104 357 q 264 182 187 248 q 452 62 342 117 q 697 7 562 7 q 943 62 834 7 q 1127 182 1051 117 q 1244 302 1203 248 q 1284 357 1284 357 q 1244 419 1284 357 q 1127 557 1203 481 q 943 694 1051 632 q 697 757 834 757 q 452 694 562 757 q 266 557 343 632 q 146 419 189 481 q 104 357 104 357 l 104 357 m 551 382 q 593 276 551 320 q 694 232 635 232 q 796 276 754 232 q 838 382 838 320 q 836 409 838 396 q 829 434 834 422 q 807 412 821 420 q 777 403 793 403 q 733 422 751 403 q 715 468 715 441 q 723 500 715 486 q 745 522 731 514 q 720 529 732 526 q 694 532 708 532 q 593 488 635 532 q 551 382 551 444 l 551 382 z "},"":{"ha":1389,"x_min":119,"x_max":1195,"o":"m 490 213 l 897 213 q 970 241 935 213 q 1024 305 1006 270 l 1195 667 l 1090 716 l 921 357 q 913 349 918 351 q 902 346 909 346 l 503 346 l 270 829 l 119 829 l 119 692 l 210 692 l 395 308 l 349 224 q 336 136 330 190 q 370 54 343 81 q 401 26 385 39 q 457 14 416 14 q 469 12 458 14 q 480 11 479 11 l 1015 11 l 1021 133 l 484 133 q 469 173 448 133 q 490 213 490 213 l 490 213 m 536 -127 q 507 -196 536 -168 q 439 -224 479 -224 q 372 -196 400 -224 q 343 -129 343 -168 q 372 -60 343 -88 q 439 -33 400 -33 q 507 -60 479 -33 q 536 -127 536 -88 l 536 -127 m 1044 -127 q 1016 -196 1044 -168 q 948 -224 987 -224 q 880 -196 907 -224 q 852 -129 852 -168 q 880 -60 852 -88 q 948 -33 907 -33 q 1016 -60 987 -33 q 1044 -127 1044 -88 l 1044 -127 m 903 764 l 764 764 l 764 903 l 625 903 l 625 764 l 486 764 l 486 625 l 625 625 l 625 486 l 764 486 l 764 625 l 903 625 l 903 764 z "}}}
